<svg width="91" height="119" viewBox="0 0 91 119" fill="none" xmlns="http://www.w3.org/2000/svg">
<g filter="url(#filter0_d_0_1)">
<path d="M15.9711 57.7117C3.01843 37.5242 17.5144 11 41.5 11C65.4856 11 79.9816 37.5242 67.0289 57.7117L41.5 97.5L15.9711 57.7117Z" fill="#FF7A00"/>
<path d="M15.9711 57.7117C3.01843 37.5242 17.5144 11 41.5 11C65.4856 11 79.9816 37.5242 67.0289 57.7117L41.5 97.5L15.9711 57.7117Z" stroke="#FF7A00" stroke-width="4"/>
</g>
<path fill-rule="evenodd" clip-rule="evenodd" d="M41.5 104.907L70.3955 59.8718C85.0563 37.022 68.6487 7 41.5 7C14.3514 7 -2.0563 37.0221 12.6045 59.8718L41.5 104.907ZM32.9326 84.1471C35.4747 81.4761 37.1828 78.0644 37.1828 74.3723C37.5085 69.9871 34.7061 66.024 31.0494 63.5256C26.6418 60.514 23.0001 56.1503 23.0001 51.2956C23.0001 49.757 23.2651 47.9217 23.523 46.5C25.851 48.9332 30.2528 49.6306 34.2248 50.2599C34.4621 50.2975 34.698 50.3348 34.9317 50.3723C35.2024 50.4157 35.4703 50.4592 35.7347 50.5035C40.5552 51.629 41.5001 55.1877 41.5001 55.1877C41.5001 55.1877 42.4451 51.629 47.2656 50.5035C47.7582 50.421 48.2633 50.341 48.7755 50.2599C52.7475 49.6306 57.1493 48.9332 59.4772 46.5C59.7351 47.9217 60.0001 49.757 60.0001 51.2956C60.0001 56.1505 56.3583 60.5142 51.9504 63.5258C48.2937 66.0243 45.4918 69.9871 45.8175 74.3723C45.8175 78.0605 47.5352 81.4636 50.0792 84.1289L67.0289 57.7117C79.9816 37.5242 65.4856 11 41.5 11C17.5144 11 3.01844 37.5242 15.9711 57.7117L32.9326 84.1471Z" fill="#1E1E1E"/>
<path d="M24.5741 47.1852L26.4497 52.5919L31.5185 54.5926L26.4497 56.5933L24.5741 62L22.6985 56.5933L17.6296 54.5926L22.6985 52.5919L24.5741 47.1852Z" fill="white"/>
<path d="M17.1667 40.7037L18.292 43.745L21.3333 44.8704L18.292 45.9957L17.1667 49.037L16.0413 45.9957L13 44.8704L16.0413 43.745L17.1667 40.7037Z" fill="white"/>
<path d="M26.4259 37L27.3012 39.3654L29.6667 40.2407L27.3012 41.116L26.4259 43.4815L25.5506 41.116L23.1852 40.2407L25.5506 39.3654L26.4259 37Z" fill="white"/>
<circle cx="42" cy="37" r="10" fill="white" stroke="#1E1E1E" stroke-width="4"/>
<defs>
<filter id="filter0_d_0_1" x="0.115295" y="0" width="90.7694" height="118.204" filterUnits="userSpaceOnUse" color-interpolation-filters="sRGB">
<feFlood flood-opacity="0" result="BackgroundImageFix"/>
<feColorMatrix in="SourceAlpha" type="matrix" values="0 0 0 0 0 0 0 0 0 0 0 0 0 0 0 0 0 0 127 0" result="hardAlpha"/>
<feOffset dx="4" dy="4"/>
<feGaussianBlur stdDeviation="6.5"/>
<feComposite in2="hardAlpha" operator="out"/>
<feColorMatrix type="matrix" values="0 0 0 0 0 0 0 0 0 0 0 0 0 0 0 0 0 0 0.5 0"/>
<feBlend mode="normal" in2="BackgroundImageFix" result="effect1_dropShadow_0_1"/>
<feBlend mode="normal" in="SourceGraphic" in2="effect1_dropShadow_0_1" result="shape"/>
</filter>
</defs>
</svg>


