<svg width="113" height="57" viewBox="0 0 113 57" fill="none" xmlns="http://www.w3.org/2000/svg">
<path d="M0.960938 26.5586L3 26.0781V13.1172L0.960938 12.6367V11.3242L7.80469 11.1953V12.6367L5.51953 13.1172V18.4023H13.5586V13.1172L11.2852 12.6367V11.3242L18.1172 11.1953V12.6367L16.0781 13.1172V26.0781L18.1172 26.5586V28H11.2852V26.5586L13.5586 26.0781V20.3242H5.51953V26.0781L7.80469 26.5586V28H0.960938V26.5586ZM35.0391 21.1562C35.0391 23.5078 34.543 25.2773 33.5508 26.4648C32.5586 27.6445 30.8555 28.2344 28.4414 28.2344C26.1523 28.2344 24.5195 27.6875 23.543 26.5938C22.5664 25.5 22.0781 23.8086 22.0781 21.5195V13.1172L20.0391 12.6367V11.3242L26.8828 11.1953V12.6367L24.5977 13.1172V21.5195C24.5977 22.7227 24.7344 23.6602 25.0078 24.332C25.2812 25.0039 25.7031 25.4844 26.2734 25.7734C26.8516 26.0547 27.6133 26.1953 28.5586 26.1953C29.5664 26.1953 30.3516 26.0352 30.9141 25.7148C31.4844 25.3945 31.8945 24.8711 32.1445 24.1445C32.3945 23.418 32.5195 22.4219 32.5195 21.1562V13.1172L30.2344 12.6367V11.3242L37.0781 11.1953V12.6367L35.0391 13.1172V21.1562ZM45.4805 26.5586V28H39V26.5586L41.0391 26.0781V13.1172L39 12.6367V11.3242L44.0391 11.1953L51.9609 24.6133V13.1172L49.9219 12.6367V11.3242L56.1562 11.1953V12.6367L54.1172 13.1172V28H51.1172L43.1953 14.7812V26.0781L45.4805 26.5586ZM72.2344 26.8047C72.2344 26.8359 71.9336 26.9766 71.332 27.2266C70.7383 27.4688 69.9844 27.6992 69.0703 27.918C68.1562 28.1289 67.1719 28.2344 66.1172 28.2344C63.6875 28.2344 61.8008 27.5234 60.457 26.1016C59.1133 24.6797 58.4414 22.6328 58.4414 19.9609C58.4414 18.1406 58.7695 16.5547 59.4258 15.2031C60.082 13.8438 61.0117 12.7969 62.2148 12.0625C63.4258 11.3281 64.8477 10.9609 66.4805 10.9609C67.2617 10.9609 68.0508 11.0508 68.8477 11.2305C69.6523 11.4023 70.3594 11.5977 70.9688 11.8164C71.5781 12.0273 71.8828 12.1406 71.8828 12.1562L71.7656 16.1172H70.1953L69.4805 13.4805C69.4023 13.4492 69.2148 13.3984 68.918 13.3281C68.6211 13.25 68.2305 13.1758 67.7461 13.1055C67.2695 13.0352 66.7656 13 66.2344 13C64.6172 13 63.3711 13.5898 62.4961 14.7695C61.6289 15.9414 61.1953 17.6328 61.1953 19.8438C61.1953 21.9375 61.6719 23.5195 62.625 24.5898C63.5781 25.6602 64.8633 26.1953 66.4805 26.1953C66.9727 26.1953 67.4648 26.1523 67.957 26.0664C68.457 25.9805 68.875 25.8906 69.2109 25.7969C69.5469 25.6953 69.7578 25.6289 69.8438 25.5977V21.6602L67.8047 21.1797V19.8672L74.0391 19.7383V21.1797L72.2344 21.6602V26.8047ZM78 13.1172L75.9609 12.6367V11.3242L80.5195 11.1953H83.1562C84.8516 11.1953 86.1758 11.582 87.1289 12.3555C88.082 13.1211 88.5586 14.1758 88.5586 15.5195C88.5586 17.8711 87.5195 19.4297 85.4414 20.1953C85.8242 20.5312 86.3047 21.2539 86.8828 22.3633L88.7812 26.1719L90.4805 26.5586V28H86.8828L84.8438 23.5586C84.4609 22.7305 84.125 22.1211 83.8359 21.7305C83.5469 21.332 83.2383 21.0586 82.9102 20.9102C82.582 20.7539 82.1445 20.6758 81.5977 20.6758H80.5195V26.0781L82.5586 26.5586V28H75.9609V26.5586L78 26.0781V13.1172ZM82.3242 18.8828C83.4883 18.8828 84.3984 18.6211 85.0547 18.0977C85.7109 17.5664 86.0391 16.8281 86.0391 15.8828C86.0391 15.0859 85.7578 14.4258 85.1953 13.9023C84.6406 13.3789 83.9219 13.1172 83.0391 13.1172H80.5195V18.8828H82.3242ZM18.6309 35.3242L25.3575 35.1953V36.6367L23.2716 37.1172L25.838 47.9922L29.7989 35.3242L32.0723 35.1953L35.963 48.2617L38.9395 37.1172L36.7481 36.6367V35.3242L43.2286 35.1953V36.6367L41.3419 37.1172L37.1114 52H34.4747L31.5919 40.9609L30.9005 38.3711L30.1505 41.0781L26.9161 52H24.5138L20.5059 37.1172L18.6309 36.6367V35.3242ZM44.3184 50.5586L46.3575 50.0781V37.1172L44.3184 36.6367V35.3242L51.1622 35.1953V36.6367L48.877 37.1172V42.4023H56.9161V37.1172L54.6427 36.6367V35.3242L61.4747 35.1953V36.6367L59.4356 37.1172V50.0781L61.4747 50.5586V52H54.6427V50.5586L56.9161 50.0781V44.3242H48.877V50.0781L51.1622 50.5586V52H44.3184V50.5586ZM69.9942 35.3242L72.3966 35.1953L77.7286 50.1016L79.7208 50.5586V52H72.7598V50.5586L74.9864 50.1016L74.0723 47.4414H67.838L66.9005 50.1016L69.1505 50.5586V52H62.5528V50.5586L64.5216 50.1016L69.9942 35.3242ZM71.002 38.3008L68.4825 45.5195H73.4278L71.002 38.3008ZM89.9044 47.3242H91.5802V52H79.9434V50.5586L81.9825 50.0781V37.1172L79.9434 36.6367V35.3242L86.5411 35.1953V36.6367L84.502 37.1172V50.0781H89.4239L89.9044 47.3242ZM103.111 42.2852V44.1953H97.5919V50.0781H103.111L103.592 47.6758H105.15V52H93.0216V50.5586L95.0606 50.0781V37.1172L93.0216 36.6367V35.3242L97.5919 35.1953H104.904V39.2852H103.346L102.748 37.1172H97.5919V42.2852H103.111Z" fill="#1E1E1E"/>
<path d="M112.618 0.71344C110.92 2.50788 107.708 3.02217 104.809 3.48623C104.435 3.54608 104.067 3.60509 103.707 3.66591C100.19 4.49594 99.5 7.12035 99.5 7.12035C99.5 7.12035 98.8104 4.49594 95.2928 3.66591C94.9333 3.60509 94.5648 3.54608 94.191 3.48623C91.2925 3.02217 88.0803 2.50788 86.3816 0.713443C86.1934 1.76191 86 3.11535 86 4.25005C86 7.8303 88.6574 11.0484 91.8738 13.2694C94.5422 15.1119 96.5872 18.0346 96.3495 21.2686C96.3495 23 95.9738 26.185 95.9738 26.185L94 26.4945C93.9753 26.8524 93.8598 27.6739 93.8239 28H105.176C105.124 27.5312 105.082 27.0253 105.056 26.4945L103.039 26.185C103.039 26.185 102.65 23 102.65 21.2686C102.413 18.0346 104.458 15.1121 107.126 13.2696C110.342 11.0486 113 7.83041 113 4.25005C113 3.11535 112.807 1.76191 112.618 0.71344Z" fill="#1E1E1E"/>
<path d="M12.5 41L14.5257 46.8393L20 49L14.5257 51.1607L12.5 57L10.4743 51.1607L5 49L10.4743 46.8393L12.5 41Z" fill="#FF7A00"/>
<path d="M4.5 34L5.71541 37.2846L9 38.5L5.71541 39.7154L4.5 43L3.28459 39.7154L0 38.5L3.28459 37.2846L4.5 34Z" fill="#FF7A00"/>
<path d="M14.5 30L15.4453 32.5547L18 33.5L15.4453 34.4453L14.5 37L13.5547 34.4453L11 33.5L13.5547 32.5547L14.5 30Z" fill="#FF7A00"/>
</svg>
